<?xml version="1.0" encoding="UTF-8"?>
<svg width="78px" height="78px" viewBox="0 0 78 78" version="1.1" xmlns="http://www.w3.org/2000/svg" xmlns:xlink="http://www.w3.org/1999/xlink">
    <title>污水处理设施</title>
    <defs>
        <circle id="path-1" cx="39" cy="39" r="30"></circle>
        <filter x="-22.5%" y="-22.5%" width="145.0%" height="145.0%" filterUnits="objectBoundingBox" id="filter-2">
            <feMorphology radius="2.5" operator="dilate" in="SourceAlpha" result="shadowSpreadOuter1"></feMorphology>
            <feOffset dx="0" dy="0" in="shadowSpreadOuter1" result="shadowOffsetOuter1"></feOffset>
            <feGaussianBlur stdDeviation="2" in="shadowOffsetOuter1" result="shadowBlurOuter1"></feGaussianBlur>
            <feComposite in="shadowBlurOuter1" in2="SourceAlpha" operator="out" result="shadowBlurOuter1"></feComposite>
            <feColorMatrix values="0 0 0 0 0.980392157   0 0 0 0 0.945098039   0 0 0 0 0.349019608  0 0 0 0.163953234 0" type="matrix" in="shadowBlurOuter1"></feColorMatrix>
        </filter>
    </defs>
    <g id="页面-1" stroke="none" stroke-width="1" fill="none" fill-rule="evenodd">
        <g id="工地-车辆" transform="translate(-937.000000, -955.000000)">
            <g id="地图" transform="translate(-96.000000, 90.000000)">
                <g id="预览图_千图网_编号33645606">
                    <g>
                        <g id="编组-2备份-4" transform="translate(1033.000000, 865.000000)">
                            <g id="编组-14">
                                <g id="椭圆形">
                                    <use fill="black" fill-opacity="1" filter="url(#filter-2)" xlink:href="#path-1"></use>
                                    <circle stroke="#F4F98A" stroke-width="2" stroke-linejoin="square" fill-opacity="0.216949" fill="#FAF159" fill-rule="evenodd" cx="39" cy="39" r="29"></circle>
                                </g>
                                <path d="M22.4280134,23.9794922 C20.9995238,25.7283537 19.9631107,26.6622967 18.7148438,29.4538225 C15.86188,35.8339662 15.0271723,45.7928048 23.054548,54.664202 M39,61.5079365 C45.9097746,61.5079365 52.2676753,58.5642842 56.2551494,53.2539683 C57.9972526,50.9339235 59.6650189,47.9222264 60.4603175,45 M57.984127,27.4444444 C54.1760354,20.9072575 47.0295012,16.7142857 39,16.7142857" id="形状" stroke="#FAF159" stroke-width="6" fill-opacity="0.130326705" fill="#0D2859" stroke-linecap="square"></path>
                                <g id="视频" transform="translate(27.714286, 27.000000)" fill="#FFFDD8" fill-rule="nonzero">
                                    <g id="车辆" transform="translate(0.285714, 0.000000)">
                                        <path d="M3.11875419,1.92762187 L3.11875417,1.92762211 C3.20610876,0.83918803 4.11472921,0.00032165216 5.20666218,0 L17.8409626,0 L17.8409626,0 C18.9328956,0.000321988557 19.8415163,0.83918803 19.9288706,1.92762211 L20.1991567,5.29048317 L20.1991567,5.29048315 C20.2706455,5.25577738 20.3491181,5.23786135 20.4285855,5.23810222 L22.5238253,5.23810222 L22.5238252,5.23810222 C22.8131182,5.23810221 23.0476345,5.47262004 23.0476345,5.76191154 C23.0476345,5.76191154 23.0476345,5.76191154 23.0476345,5.76191154 L23.0476345,8.90477234 L23.0476345,8.90477236 C23.0476345,9.19406533 22.8131167,9.42858168 22.5238252,9.42858168 C22.5238252,9.42858168 22.5238252,9.42858168 22.5238252,9.42858168 L20.5312515,9.42858168 L20.9523948,14.6666748 L20.9523948,19.904768 L20.9523948,19.904768 C20.9523948,20.4833515 20.4833597,20.9523891 19.9047737,20.9523891 L19.9047737,22.5238195 L19.9047737,22.5238195 C19.9047737,22.8131124 19.6702559,23.0476288 19.3809644,23.0476288 C19.3809644,23.0476288 19.3809644,23.0476288 19.3809644,23.0476288 L16.2381036,23.0476288 L16.2381036,23.0476288 C15.9488106,23.0476288 15.7142943,22.813111 15.7142943,22.5238195 C15.7142943,22.5238195 15.7142943,22.5238195 15.7142943,22.5238195 L15.7142943,20.9523891 L7.33334032,20.9523891 L7.33334032,22.5238195 L7.33334032,22.5238195 C7.33334032,22.8131124 7.0988225,23.0476288 6.80953101,23.0476288 C6.80953101,23.0476288 6.80953101,23.0476288 6.80953101,23.0476288 L3.66667021,23.0476288 L3.66667018,23.0476288 C3.37737721,23.0476288 3.14286087,22.813111 3.14286087,22.5238195 C3.14286087,22.5238195 3.14286087,22.5238195 3.14286087,22.5238195 L3.14286087,20.9523891 L3.14286082,20.9523891 C2.56427734,20.952389 2.09523974,20.4833539 2.09523974,19.904768 L2.09523974,14.6666748 L2.51533465,9.42858168 L0.523809338,9.42858168 L0.523809315,9.42858168 C0.234516344,9.42858166 0,9.19406386 0,8.90477236 C0,8.90477235 0,8.90477234 0,8.90477234 L0,5.76191154 L0,5.76191162 C0,5.47261864 0.234517818,5.2381023 0.523809315,5.2381023 L2.61904903,5.2381023 C2.70076341,5.2381023 2.77933493,5.25695947 2.84847787,5.29048323 L3.1187639,1.92762218 L3.11875419,1.92762187 Z M19.2604873,4.19048013 L3.78712773,4.19048013 L3.26122154,9.32171753 L3.26122152,9.32171771 C3.20220596,9.89728356 3.62095386,10.4117159 4.19651971,10.4707304 C4.23209738,10.4743784 4.26783859,10.4761944 4.30360287,10.4761944 L18.7439924,10.4761944 L18.7439925,10.4761944 C19.3225759,10.4763191 19.7918395,10.0073851 19.7918395,9.42879917 C19.7918395,9.39303489 19.7900234,9.35729369 19.7863755,9.32171601 L19.2604693,4.19048013 L19.2604873,4.19048013 Z M3.66666777,16.7619241 L3.66666775,16.7619241 C3.37737478,16.7619241 3.14285843,16.9964427 3.14285843,17.2857342 C3.14285843,17.2857342 3.14285843,17.2857342 3.14285843,17.2857342 L3.14285843,18.3333553 L3.14285843,18.3333552 C3.14285843,18.6226482 3.37737625,18.8571645 3.66666775,18.8571645 C3.66666775,18.8571645 3.66666777,18.8571645 3.66666777,18.8571645 L8.38095897,18.8571645 L8.38095899,18.8571645 C8.67025196,18.8571645 8.9047683,18.6226467 8.9047683,18.3333552 C8.9047683,18.2200183 8.86800837,18.1097387 8.80000619,18.0190691 L8.01429099,16.9714481 L8.01429098,16.971448 C7.91536723,16.8395495 7.76011702,16.7619241 7.59524205,16.7619241 L3.66666605,16.7619241 L3.66666777,16.7619241 Z M19.9058295,17.2857342 L19.9058295,17.2857341 C19.9058295,16.9964412 19.6713117,16.7619248 19.3820202,16.7619248 C19.3820202,16.7619248 19.3820202,16.7619248 19.3820202,16.7619248 L15.4534442,16.7619248 L15.4534442,16.7619248 C15.2885712,16.7619248 15.1333192,16.8395505 15.0343952,16.9714488 L14.24868,18.0190699 L14.24868,18.0190699 C14.0751045,18.2505038 14.1220083,18.5788281 14.3534419,18.7524049 C14.4441115,18.8204071 14.554391,18.857167 14.667728,18.857167 L19.3820192,18.857167 L19.3820192,18.857167 C19.6713121,18.857167 19.9058295,18.6226492 19.9058295,18.3333577 C19.9058295,18.3333577 19.9058295,18.3333577 19.9058295,18.3333577 L19.9058295,17.2857366 L19.9058295,17.2857342 Z" id="形状"></path>
                                    </g>
                                </g>
                            </g>
                        </g>
                    </g>
                </g>
            </g>
        </g>
    </g>
</svg>