<?xml version="1.0" encoding="UTF-8"?>
<svg width="78px" height="78px" viewBox="0 0 78 78" version="1.1" xmlns="http://www.w3.org/2000/svg" xmlns:xlink="http://www.w3.org/1999/xlink">
    <title>人员-选中</title>
    <defs>
        <circle id="path-1" cx="39" cy="39" r="30"></circle>
        <filter x="-22.5%" y="-22.5%" width="145.0%" height="145.0%" filterUnits="objectBoundingBox" id="filter-2">
            <feMorphology radius="2.5" operator="dilate" in="SourceAlpha" result="shadowSpreadOuter1"></feMorphology>
            <feOffset dx="0" dy="0" in="shadowSpreadOuter1" result="shadowOffsetOuter1"></feOffset>
            <feGaussianBlur stdDeviation="2" in="shadowOffsetOuter1" result="shadowBlurOuter1"></feGaussianBlur>
            <feComposite in="shadowBlurOuter1" in2="SourceAlpha" operator="out" result="shadowBlurOuter1"></feComposite>
            <feColorMatrix values="0 0 0 0 0.980392157   0 0 0 0 0.945098039   0 0 0 0 0.349019608  0 0 0 0.163953234 0" type="matrix" in="shadowBlurOuter1"></feColorMatrix>
        </filter>
    </defs>
    <g id="页面-1" stroke="none" stroke-width="1" fill="none" fill-rule="evenodd">
        <g id="工地-人员" transform="translate(-831.000000, -955.000000)">
            <g id="地图" transform="translate(-96.000000, 90.000000)">
                <g id="预览图_千图网_编号33645606">
                    <g>
                        <g id="编组-2备份-4" transform="translate(927.000000, 865.000000)">
                            <g id="编组-14">
                                <g id="椭圆形">
                                    <use fill="black" fill-opacity="1" filter="url(#filter-2)" xlink:href="#path-1"></use>
                                    <circle stroke="#F4F98A" stroke-width="2" stroke-linejoin="square" fill-opacity="0.216949" fill="#FAF159" fill-rule="evenodd" cx="39" cy="39" r="29"></circle>
                                </g>
                                <path d="M22.4280134,23.9794922 C20.9995238,25.7283537 19.9631107,26.6622967 18.7148438,29.4538225 C15.86188,35.8339662 15.0271723,45.7928048 23.054548,54.664202 M39,61.5079365 C45.9097746,61.5079365 52.2676753,58.5642842 56.2551494,53.2539683 C57.9972526,50.9339235 59.6650189,47.9222264 60.4603175,45 M57.984127,27.4444444 C54.1760354,20.9072575 47.0295012,16.7142857 39,16.7142857" id="形状" stroke="#FAF159" stroke-width="6" fill-opacity="0.130326705" fill="#0D2859" stroke-linecap="square"></path>
                                <g id="人员" transform="translate(29.000000, 25.000000)" fill="#FFFDD8" fill-rule="nonzero">
                                    <path d="M20.0566246,22.7083156 L20.0566246,23.4959258 C20.0566246,25.1278792 16.045304,26.5248032 16.045304,26.5248032 L14.3734413,26.2986139 C14.3734413,26.2986139 11.7009087,25.942016 10.0283157,25.942016 C8.35573769,25.942016 5.68319002,26.2986139 5.68319002,26.2986139 L4.02350605,26.5196459 C4.02350605,26.5196459 0,25.1212506 0,23.4966744 L0,22.708326 C0,21.1920456 1.8545193,19.6617567 4.02708212,18.4880865 C4.13237948,18.431355 5.43820913,26.3148429 5.43820913,26.3148429 L6.01627065,26.2986339 C6.01627065,26.2986339 4.90026254,18.1594859 5.0134401,18.1049857 C5.61513893,17.8117495 6.01054139,17.5361973 6.6022096,17.3092704 C6.82211595,17.2238046 7.87150769,16.6167039 7.28413328,14.9803289 C5.92529747,13.5008879 4.99982837,12.0693366 4.99982837,8.84227438 L15.0890279,8.84227438 C15.0890279,12.0369318 14.1392037,13.4817299 12.7882478,14.9611865 L12.7954109,14.9611865 C12.2216483,16.817119 13.1392374,17.256972 13.2860829,17.3078095 C13.8713066,17.5141061 14.4550974,17.8368133 15.0424693,18.1035248 C15.1878799,18.1698344 14.0396388,26.2979242 14.0396388,26.2979242 L14.6499328,26.2802416 C14.6499328,26.2802416 15.895591,18.4232821 16.0230955,18.4895941 C18.228606,19.6411716 20.0566246,21.161138 20.0566246,22.7083571 L20.0566246,22.7083156 Z M15.8433065,6.30625443 C15.8433065,2.25990255 11.0511974,0.235237177 11.0511974,0.235237177 C10.3728548,-0.116941608 9.69880857,-0.0373698216 9.00470612,0.235237177 C9.00470612,0.235237177 4.21332733,2.01159785 4.21332733,6.30625443 C4.21332733,6.94872168 3.20046867,6.81168124 2.86523736,8.84222921 L17.191399,8.84222921 C16.5818202,6.79694495 15.8425913,6.94872168 15.8425913,6.30772832 L15.8433076,6.30699155 L15.8433065,6.30625443 Z" id="形状"></path>
                                </g>
                            </g>
                        </g>
                    </g>
                </g>
            </g>
        </g>
    </g>
</svg>