<?xml version="1.0" encoding="UTF-8"?>
<svg width="74px" height="74px" viewBox="0 0 74 74" version="1.1" xmlns="http://www.w3.org/2000/svg" xmlns:xlink="http://www.w3.org/1999/xlink">
    <title>视频监控</title>
    <defs>
        <circle id="path-1" cx="37" cy="37" r="28"></circle>
        <filter x="-24.1%" y="-24.1%" width="148.2%" height="148.2%" filterUnits="objectBoundingBox" id="filter-2">
            <feMorphology radius="2.5" operator="dilate" in="SourceAlpha" result="shadowSpreadOuter1"></feMorphology>
            <feOffset dx="0" dy="0" in="shadowSpreadOuter1" result="shadowOffsetOuter1"></feOffset>
            <feGaussianBlur stdDeviation="2" in="shadowOffsetOuter1" result="shadowBlurOuter1"></feGaussianBlur>
            <feComposite in="shadowBlurOuter1" in2="SourceAlpha" operator="out" result="shadowBlurOuter1"></feComposite>
            <feColorMatrix values="0 0 0 0 0.0445081617   0 0 0 0 0.510213781   0 0 0 0 0.863507699  0 0 0 0.226425918 0" type="matrix" in="shadowBlurOuter1"></feColorMatrix>
        </filter>
    </defs>
    <g id="页面-1" stroke="none" stroke-width="1" fill="none" fill-rule="evenodd">
        <g id="一张图" transform="translate(-602.000000, -959.000000)">
            <g id="编组-2备份-4" transform="translate(602.000000, 959.000000)">
                <g id="编组-3">
                    <g id="椭圆形">
                        <use fill="black" fill-opacity="1" filter="url(#filter-2)" xlink:href="#path-1"></use>
                        <circle stroke="#A7E2FF" stroke-width="2" stroke-linejoin="square" fill-opacity="0.217001748" fill="#2798D0" fill-rule="evenodd" cx="37" cy="37" r="27"></circle>
                    </g>
                    <path d="M18.9549479,20.6443359 C17.3994815,22.5486518 16.2709427,23.5656119 14.9117188,26.6052734 C11.8051582,33.5525409 10.8962543,44.3966097 19.6371745,54.0565755 M37,61.508642 C44.5239768,61.508642 51.4470242,58.3033317 55.7889405,52.5209877 C57.6858973,49.9947167 59.5019095,46.7153132 60.3679012,43.5333333 M57.6716049,24.417284 C53.5250164,17.2990137 45.7432346,12.7333333 37,12.7333333" id="形状" stroke="#7ECDF3" stroke-width="4" fill-opacity="0.130326705" fill="#0D2859" stroke-linecap="square"></path>
                    <g id="人员" transform="translate(27.000000, 23.000000)" fill="#E1F5FF" fill-rule="nonzero">
                        <path d="M20.0566246,22.7083156 L20.0566246,23.4959258 C20.0566246,25.1278792 16.045304,26.5248032 16.045304,26.5248032 L14.3734413,26.2986139 C14.3734413,26.2986139 11.7009087,25.942016 10.0283157,25.942016 C8.35573769,25.942016 5.68319002,26.2986139 5.68319002,26.2986139 L4.02350605,26.5196459 C4.02350605,26.5196459 0,25.1212506 0,23.4966744 L0,22.708326 C0,21.1920456 1.8545193,19.6617567 4.02708212,18.4880865 C4.13237948,18.431355 5.43820913,26.3148429 5.43820913,26.3148429 L6.01627065,26.2986339 C6.01627065,26.2986339 4.90026254,18.1594859 5.0134401,18.1049857 C5.61513893,17.8117495 6.01054139,17.5361973 6.6022096,17.3092704 C6.82211595,17.2238046 7.87150769,16.6167039 7.28413328,14.9803289 C5.92529747,13.5008879 4.99982837,12.0693366 4.99982837,8.84227438 L15.0890279,8.84227438 C15.0890279,12.0369318 14.1392037,13.4817299 12.7882478,14.9611865 L12.7954109,14.9611865 C12.2216483,16.817119 13.1392374,17.256972 13.2860829,17.3078095 C13.8713066,17.5141061 14.4550974,17.8368133 15.0424693,18.1035248 C15.1878799,18.1698344 14.0396388,26.2979242 14.0396388,26.2979242 L14.6499328,26.2802416 C14.6499328,26.2802416 15.895591,18.4232821 16.0230955,18.4895941 C18.228606,19.6411716 20.0566246,21.161138 20.0566246,22.7083571 L20.0566246,22.7083156 Z M15.8433065,6.30625443 C15.8433065,2.25990255 11.0511974,0.235237177 11.0511974,0.235237177 C10.3728548,-0.116941608 9.69880857,-0.0373698216 9.00470612,0.235237177 C9.00470612,0.235237177 4.21332733,2.01159785 4.21332733,6.30625443 C4.21332733,6.94872168 3.20046867,6.81168124 2.86523736,8.84222921 L17.191399,8.84222921 C16.5818202,6.79694495 15.8425913,6.94872168 15.8425913,6.30772832 L15.8433076,6.30699155 L15.8433065,6.30625443 Z" id="形状"></path>
                    </g>
                </g>
            </g>
        </g>
    </g>
</svg>