<?xml version="1.0" encoding="UTF-8"?>
<svg width="78px" height="78px" viewBox="0 0 78 78" version="1.1" xmlns="http://www.w3.org/2000/svg" xmlns:xlink="http://www.w3.org/1999/xlink">
    <title>视频监控-选中</title>
    <defs>
        <circle id="path-1" cx="39" cy="39" r="30"></circle>
        <filter x="-22.5%" y="-22.5%" width="145.0%" height="145.0%" filterUnits="objectBoundingBox" id="filter-2">
            <feMorphology radius="2.5" operator="dilate" in="SourceAlpha" result="shadowSpreadOuter1"></feMorphology>
            <feOffset dx="0" dy="0" in="shadowSpreadOuter1" result="shadowOffsetOuter1"></feOffset>
            <feGaussianBlur stdDeviation="2" in="shadowOffsetOuter1" result="shadowBlurOuter1"></feGaussianBlur>
            <feComposite in="shadowBlurOuter1" in2="SourceAlpha" operator="out" result="shadowBlurOuter1"></feComposite>
            <feColorMatrix values="0 0 0 0 0.980392157   0 0 0 0 0.945098039   0 0 0 0 0.349019608  0 0 0 0.163953234 0" type="matrix" in="shadowBlurOuter1"></feColorMatrix>
        </filter>
    </defs>
    <g id="页面-1" stroke="none" stroke-width="1" fill="none" fill-rule="evenodd">
        <g id="一张图-视频监测" transform="translate(-725.000000, -955.000000)">
            <g id="编组-2备份-4" transform="translate(725.000000, 955.000000)">
                <g id="编组-14">
                    <g id="椭圆形">
                        <use fill="black" fill-opacity="1" filter="url(#filter-2)" xlink:href="#path-1"></use>
                        <circle stroke="#F4F98A" stroke-width="2" stroke-linejoin="square" fill-opacity="0.216949" fill="#FAF159" fill-rule="evenodd" cx="39" cy="39" r="29"></circle>
                    </g>
                    <path d="M22.4280134,23.9794922 C20.9995238,25.7283537 19.9631107,26.6622967 18.7148438,29.4538225 C15.86188,35.8339662 15.0271723,45.7928048 23.054548,54.664202 M39,61.5079365 C45.9097746,61.5079365 52.2676753,58.5642842 56.2551494,53.2539683 C57.9972526,50.9339235 59.6650189,47.9222264 60.4603175,45 M57.984127,27.4444444 C54.1760354,20.9072575 47.0295012,16.7142857 39,16.7142857" id="形状" stroke="#FAF159" stroke-width="6" fill-opacity="0.130326705" fill="#0D2859" stroke-linecap="square"></path>
                    <g id="视频" transform="translate(27.714286, 27.000000)" fill="#FFFDD8" fill-rule="nonzero">
                        <g transform="translate(0.285714, 0.000000)" id="形状">
                            <path d="M11.1995553,6.78257913 C10.6926069,6.78257913 10.2098823,6.87227462 9.76394463,7.03407963 C9.80342376,7.06134005 9.8384169,7.0921179 9.8716153,7.12289601 C10.4763665,7.69184778 10.3220379,8.76116073 9.52706833,9.50862436 C8.83348942,10.1611166 7.88150029,10.3536967 7.24983168,10.0160209 C7.22650303,10.1866185 7.21124955,10.3589739 7.21124955,10.5383649 C7.21124955,12.6110375 8.99678917,14.2932653 11.2031481,14.2932653 C13.4059115,14.2932653 15.1941319,12.6136699 15.1941319,10.5383649 C15.1914401,8.46305489 13.4032103,6.78346447 11.1995398,6.78346447 L11.1995553,6.78257913 Z M16.8881683,19.6169544 C20.1846813,17.7808324 22.4,14.4023062 22.4,10.5383512 C22.4,4.7178135 17.3852244,0 11.1995553,0 C5.01386078,0 0,4.7178135 0,10.5383512 C0,14.404946 2.21173583,17.7843439 5.51274646,19.6169544 L3.12604617,23.5081544 C2.72227987,24.1641631 3.22653887,24.9846154 4.02958244,24.9846154 L18.367724,24.9846154 C19.1707691,24.9846154 19.6750266,24.1641631 19.2712603,23.5081544 L16.887251,19.6169544 L16.8881683,19.6169544 Z M11.1995553,16.5919155 C7.64461687,16.5919155 4.76534543,13.8799448 4.76534543,10.5383512 C4.76534543,7.19234952 7.6473358,4.48389025 11.1995553,4.48389025 C14.7553831,4.48389025 17.63468,7.19586099 17.63468,10.5383512 C17.63468,13.8799448 14.7553831,16.5919155 11.1995553,16.5919155 Z"></path>
                        </g>
                    </g>
                </g>
            </g>
        </g>
    </g>
</svg>